<?xml version="1.0" encoding="UTF-8"?>
<svg version="1.1" xmlns="http://www.w3.org/2000/svg" width="2000" height="1500">
<path d="M0 0 C660 0 1320 0 2000 0 C2000 495 2000 990 2000 1500 C1340 1500 680 1500 0 1500 C0 1005 0 510 0 0 Z " fill="#FEFEFE" transform="translate(0,0)"/>
<path d="M0 0 C0.88042969 -0.02578125 1.76085937 -0.0515625 2.66796875 -0.078125 C12.02699794 0.89846935 18.7638699 5.54844907 26.3125 10.875 C27.4078138 11.63575053 28.50394162 12.39533025 29.60083008 13.15380859 C31.87587244 14.72827215 34.14736156 16.3076715 36.41650391 17.890625 C41.74444757 21.6007258 47.12544371 25.23293685 52.5 28.875 C54.55890458 30.27428234 56.61750001 31.67401966 58.67578125 33.07421875 C59.68463379 33.7604834 60.69348633 34.44674805 61.73291016 35.15380859 C67.8244938 39.30018065 73.91213227 43.45234242 79.9987793 47.60595703 C80.8525415 48.18845215 81.70630371 48.77094727 82.5859375 49.37109375 C83.70621338 50.13570923 83.70621338 50.13570923 84.84912109 50.91577148 C86.49761174 52.03601537 88.15413635 53.14442423 89.8125 54.25 C90.12034886 56.80994254 90.2323981 59.1303017 90.21655273 61.69384766 C90.22341599 62.46157501 90.23027924 63.22930237 90.23735046 64.02029419 C90.25570823 66.56840322 90.25176582 69.11590125 90.24609375 71.6640625 C90.2506538 73.43566082 90.25595885 75.20725736 90.26197815 76.97885132 C90.27092874 80.69967816 90.26846707 84.42029065 90.25854492 88.14111328 C90.24709824 92.89584373 90.2671902 97.64982677 90.29646206 102.404459 C90.31487275 106.06778631 90.31452115 109.73093655 90.30882454 113.39429855 C90.30867167 115.14608172 90.31468717 116.89787716 90.32711601 118.64961624 C90.34210299 121.11013722 90.33129101 123.5693046 90.31420898 126.02978516 C90.32871094 127.10401733 90.32871094 127.10401733 90.34350586 128.19995117 C90.25307698 134.46422294 88.21997978 139.81479493 83.77734375 144.30859375 C82.77380859 144.99115234 82.77380859 144.99115234 81.75 145.6875 C81.07839844 146.16058594 80.40679687 146.63367188 79.71484375 147.12109375 C75.36742014 149.70098168 71.09090563 149.37855788 66.20703125 149.34765625 C65.36782639 149.3462413 64.52862152 149.34482635 63.66398621 149.34336853 C60.98428784 149.33777215 58.3046731 149.32522035 55.625 149.3125 C53.80794392 149.30748453 51.99088652 149.30292171 50.17382812 149.29882812 C45.72001987 149.28780391 41.26627411 149.27054178 36.8125 149.25 C36.80703156 148.28066528 36.80703156 148.28066528 36.80145264 147.29174805 C36.75951871 140.54260791 36.69009643 133.7941409 36.60498047 127.04541016 C36.57682123 124.52952825 36.55558172 122.0135587 36.54150391 119.49755859 C36.52000544 115.87291764 36.4733163 112.24932483 36.421875 108.625 C36.42064636 107.50697998 36.41941772 106.38895996 36.41815186 105.23706055 C36.29235647 98.4716076 35.46094712 93.99967317 31.8125 88.25 C25.37826231 82.93476017 19.02381912 81.94001648 10.9765625 81.94921875 C9.71928848 81.94279106 9.71928848 81.94279106 8.43661499 81.93623352 C6.66999206 81.93051167 4.90334558 81.92997408 3.13671875 81.93432617 C0.4527103 81.93748212 -2.23019036 81.91401464 -4.9140625 81.88867188 C-6.63801946 81.88639805 -8.36197935 81.88569577 -10.0859375 81.88671875 C-11.27538467 81.87290413 -11.27538467 81.87290413 -12.48886108 81.85881042 C-18.64277689 81.90919093 -24.37175622 82.89909437 -29.24609375 86.96875 C-29.92865234 87.85046875 -29.92865234 87.85046875 -30.625 88.75 C-31.09808594 89.3378125 -31.57117188 89.925625 -32.05859375 90.53125 C-34.21499816 93.81435706 -34.3305788 96.73297234 -34.39282227 100.54760742 C-34.41276749 101.62850143 -34.43271271 102.70939545 -34.45326233 103.82304382 C-34.47833107 105.57159416 -34.47833107 105.57159416 -34.50390625 107.35546875 C-34.52468735 108.54981033 -34.54546844 109.74415192 -34.56687927 110.97468567 C-34.63234276 114.79556443 -34.6912451 118.61651276 -34.75 122.4375 C-34.79318824 125.02539786 -34.83680263 127.61328865 -34.88085938 130.20117188 C-34.98802092 136.55070739 -35.0897934 142.90031234 -35.1875 149.25 C-40.5767834 149.39928763 -45.96484103 149.507654 -51.35571289 149.57958984 C-53.18600452 149.60960256 -55.01615427 149.65042728 -56.84594727 149.70263672 C-75.20055807 150.2129039 -75.20055807 150.2129039 -81.67993164 144.8605957 C-86.82473111 139.36420023 -88.32458107 134.39387825 -88.57080078 126.93969727 C-88.59825378 126.1977562 -88.62570679 125.45581512 -88.6539917 124.69139099 C-88.89413034 117.83457034 -89.03744484 110.97552653 -89.15043831 104.1155405 C-89.22777879 99.51261015 -89.33727398 94.91553874 -89.52490234 90.31567383 C-90.80829806 58.05021958 -90.80829806 58.05021958 -84.61987305 51.30981445 C-81.17675021 48.5342604 -77.56255201 46.77028218 -73.44276428 45.21575928 C-69.48414971 43.52058378 -66.17811355 40.88387824 -62.75 38.3125 C-61.96294678 37.75820313 -61.17589355 37.20390625 -60.36499023 36.6328125 C-56.07180806 33.59982371 -51.8062541 30.53116296 -47.55395508 27.44116211 C-40.45386481 22.28217048 -33.30337412 17.20992073 -26.0625 12.25 C-25.29309082 11.72220947 -24.52368164 11.19441895 -23.73095703 10.65063477 C-20.14207641 8.20495156 -16.53285276 5.79105945 -12.8828125 3.4375 C-12.26680176 3.03917969 -11.65079102 2.64085937 -11.01611328 2.23046875 C-7.45587776 0.32153606 -3.99130803 0.06911356 0 0 Z " fill="#010101" transform="translate(354.1875,726.75)"/>
<path d="M0 0 C7.57898916 6.30807482 12.56263198 13.51438372 14.6875 23.25 C14.90135832 26.16422396 14.87261327 29.07864004 14.875 32 C14.88724609 32.7734375 14.89949219 33.546875 14.91210938 34.34375 C14.9389429 45.00560229 11.78318065 55.22632337 4.375 63.125 C-4.10340394 70.941316 -14.41203144 72.73968719 -25.65234375 72.5625 C-30.61162845 72.13908188 -34.13416655 70.89024614 -38.3125 68.25 C-39.00859375 67.82589844 -39.7046875 67.40179687 -40.421875 66.96484375 C-48.29560425 61.65155653 -53.54862984 53.2309509 -55.8671875 44.0546875 C-58.06741423 30.19711912 -56.21615061 17.82990073 -48.015625 6.25390625 C-36.40750255 -7.40427452 -14.79459391 -10.49938923 0 0 Z " fill="#060606" transform="translate(1487.3125,771.75)"/>
<path d="M0 0 C7.94309408 5.68764761 13.43208343 14.68619893 15.25 24.3125 C16.09841124 37.88707988 14.68464813 50.19861071 6.25 61.3125 C0.26065114 67.97690736 -8.1675627 71.91187803 -17.0703125 72.55078125 C-29.37989376 72.79090655 -37.3812007 70.61860012 -46.48046875 61.94921875 C-55.72494913 51.20907373 -56.49526276 38.96648347 -55.92919922 25.46826172 C-55.1629721 16.25057031 -50.31477107 8.52157462 -43.64453125 2.37109375 C-30.74440251 -8.26429638 -14.31631508 -8.74224232 0 0 Z " fill="#060606" transform="translate(1209.75,771.6875)"/>
<path d="M0 0 C8.96490008 5.85690295 13.66533122 13.99599365 17 24 C18.2152123 37.63552009 17.75876921 51.31953658 8.61328125 62.2578125 C8.08089844 62.83273437 7.54851563 63.40765625 7 64 C6.49855469 64.55429687 5.99710938 65.10859375 5.48046875 65.6796875 C-1.31520303 72.32654895 -10.25626221 74.20827412 -19.5 74.625 C-27.15019577 74.41314842 -32.63349841 72.11601731 -39 68 C-39.61488281 67.61714844 -40.22976563 67.23429688 -40.86328125 66.83984375 C-48.15519127 61.58288537 -52.56547113 51.65499083 -54 43 C-55.11518722 28.81234043 -52.97270118 17.27893763 -44 6 C-32.04836836 -5.95163164 -14.90559183 -6.97990277 0 0 Z " fill="#060606" transform="translate(625,770)"/>
<path d="M0 0 C0.77794922 -0.02900391 1.55589844 -0.05800781 2.35742188 -0.08789062 C13.4951321 -0.20864979 21.50505841 6.98743993 30.3125 13.0625 C32.81361746 14.77691496 35.31704557 16.4879444 37.8203125 18.19921875 C38.44890167 18.62963974 39.07749084 19.06006073 39.72512817 19.50352478 C45.84046582 23.68634632 52.01144525 27.78237992 58.1875 31.875 C61.04934652 33.78367775 63.90906749 35.69546473 66.76708984 37.60986328 C68.38208191 38.690139 69.99933575 39.76704717 71.61962891 40.83935547 C79.76257075 46.24608869 86.10234271 50.68202814 89.3125 60.3125 C89.38301114 63.05115287 89.40607765 65.76277588 89.375 68.5 C89.37048828 69.24958984 89.36597656 69.99917969 89.36132812 70.77148438 C89.34956354 72.61852383 89.33162865 74.46552213 89.3125 76.3125 C80.77857575 70.95369756 72.37165674 65.41402061 63.98779297 59.82446289 C61.81774868 58.37849735 59.64526147 56.93625451 57.47265625 55.49414062 C50.39616215 50.78568801 43.40844689 46.00716588 36.56542969 40.96362305 C32.85091418 38.24133562 29.01385333 35.7298611 25.1640625 33.203125 C23.36881296 32.01284996 21.58983257 30.79728599 19.8359375 29.546875 C11.85990682 23.90061273 4.1056407 22.12815399 -5.6875 23.3125 C-12.56477248 24.92428407 -17.62635174 27.99794504 -23.1875 32.25 C-24.77011464 33.42674844 -26.35346543 34.60250739 -27.9375 35.77734375 C-28.73027344 36.37015137 -29.52304687 36.96295898 -30.33984375 37.57373047 C-33.91046546 40.21827787 -37.54692597 42.7655876 -41.1875 45.3125 C-46.99246834 49.39135835 -52.75732133 53.5214648 -58.5 57.6875 C-65.21373269 62.55193217 -71.965712 67.3594336 -78.75 72.125 C-79.62567627 72.7422998 -80.50135254 73.35959961 -81.40356445 73.99560547 C-82.61338989 74.84276123 -82.61338989 74.84276123 -83.84765625 75.70703125 C-84.92478882 76.46270386 -84.92478882 76.46270386 -86.02368164 77.23364258 C-87.6875 78.3125 -87.6875 78.3125 -88.6875 78.3125 C-89.80214394 58.20762596 -89.80214394 58.20762596 -84.671875 51.34765625 C-81.26967962 47.85839681 -77.57909897 45.13273051 -73.49365234 42.48535156 C-71.53990274 41.21665555 -69.6073579 39.91938417 -67.67578125 38.6171875 C-64.31105854 36.35473255 -60.9358358 34.10892352 -57.5546875 31.87109375 C-52.82584107 28.73832463 -48.10892726 25.58829021 -43.39733887 22.42962646 C-39.84827663 20.05042693 -36.29739305 17.67395249 -32.74645996 15.29754639 C-30.95835079 14.09998412 -29.17099555 12.90129537 -27.38439941 11.70147705 C-24.84954793 9.99959275 -22.3118161 8.30208622 -19.7734375 6.60546875 C-19.00242706 6.08630386 -18.23141663 5.56713898 -17.43704224 5.03224182 C-16.36678299 4.31861732 -16.36678299 4.31861732 -15.27490234 3.59057617 C-14.34065933 2.96441658 -14.34065933 2.96441658 -13.38754272 2.3256073 C-9.16645734 -0.1898662 -4.75366762 0.0576435 0 0 Z " fill="#030303" transform="translate(354.6875,691.6875)"/>
<path d="M0 0 C7.57390725 5.05424125 12.27180273 11.8779082 15.125 20.4375 C15.9375 24.875 15.9375 24.875 15.9375 37.875 C-2.2125 37.875 -20.3625 37.875 -39.0625 37.875 C-36.67230794 50.07188195 -36.67230794 50.07188195 -30.0625 59.875 C-23.64187141 63.84148141 -17.3997831 63.74708851 -10.0625 62.875 C-3.33371007 60.61462889 -0.33421492 55.90722439 2.9375 49.875 C6.5675 50.865 10.1975 51.855 13.9375 52.875 C12.50105339 60.05723305 9.51103468 64.02815721 3.625 68.125 C-5.84184874 73.90085878 -15.07281977 75.51110408 -26.0625 73.875 C-32.75419848 71.69292441 -38.60586631 68.41202974 -43.0625 62.875 C-43.908125 61.905625 -44.75375 60.93625 -45.625 59.9375 C-52.13728948 50.3957594 -53.21705099 38.06343223 -52.0625 26.875 C-50.02983672 16.14638674 -45.61529667 6.74343117 -36.5 0.375 C-25.75272839 -6.40859896 -10.98982429 -6.2171006 0 0 Z " fill="#070707" transform="translate(831.0625,770.125)"/>
<path d="M0 0 C4.09552496 2.35096194 7.1520034 6.07267131 9.71484375 9.984375 C9.71484375 10.644375 9.71484375 11.304375 9.71484375 11.984375 C10.39546875 11.283125 11.07609375 10.581875 11.77734375 9.859375 C12.75160768 8.89605785 13.73124944 7.93816343 14.71484375 6.984375 C15.2459375 6.46875 15.77703125 5.953125 16.32421875 5.421875 C22.56996684 -0.30816912 28.66660259 -2.66492815 37.19140625 -2.36328125 C43.0105732 -1.56156939 47.30305779 0.63533508 51.52734375 4.671875 C57.19373746 13.25241405 58.28174514 20.08293472 58.10546875 30.33203125 C58.09980896 31.58447128 58.09414917 32.83691132 58.08831787 34.12730408 C58.06982533 37.42702541 58.03400788 40.7259376 57.98950195 44.02539062 C57.94828704 47.40419712 57.93025146 50.78312296 57.91015625 54.16210938 C57.86621453 60.76988366 57.79725007 67.376973 57.71484375 73.984375 C54.08484375 73.984375 50.45484375 73.984375 46.71484375 73.984375 C46.70549805 72.425979 46.69615234 70.86758301 46.68652344 69.26196289 C46.64650164 63.45259542 46.58070786 57.64375072 46.50732422 51.8347168 C46.47918538 49.32567078 46.4579358 46.81653729 46.44384766 44.30737305 C46.42232077 40.69013919 46.37561735 37.07394932 46.32421875 33.45703125 C46.32299011 32.34417252 46.32176147 31.23131378 46.32049561 30.08473206 C46.17966683 22.51130158 45.16578759 15.65364386 39.80078125 9.94921875 C35.6088036 8.01023283 31.21020056 8.39717309 26.71484375 8.984375 C20.23952858 12.16316608 16.78915004 16.87784308 14.35238647 23.58886719 C13.13629726 28.15820991 13.23228325 32.78192395 13.203125 37.484375 C13.1851738 38.56066162 13.1672226 39.63694824 13.14872742 40.74584961 C13.09486374 44.15865243 13.0608051 47.57131731 13.02734375 50.984375 C12.9941496 53.30861284 12.95965802 55.63283254 12.92382812 57.95703125 C12.83915079 63.6327126 12.77222532 69.30835472 12.71484375 74.984375 C8.75484375 74.984375 4.79484375 74.984375 0.71484375 74.984375 C0.70549805 73.32986328 0.69615234 71.67535156 0.68652344 69.97070312 C0.64655228 63.8128805 0.5807721 57.6555537 0.50732422 51.49804688 C0.47696852 48.83645889 0.45792261 46.1754748 0.44384766 43.51367188 C0.4223616 39.68055857 0.37567812 35.84843898 0.32421875 32.015625 C0.32299011 30.83198364 0.32176147 29.64834229 0.32049561 28.42883301 C0.19919693 21.53574778 -0.41546904 16.77609228 -4.28515625 10.984375 C-9.67408952 7.79288834 -15.07147828 8.42157552 -20.97265625 9.921875 C-26.69239089 13.48321921 -29.80056454 18.4838861 -31.33813477 24.99926758 C-32.44492253 30.17140882 -32.63269888 35.21334868 -32.69921875 40.48828125 C-32.7185849 41.4521727 -32.73795105 42.41606415 -32.75790405 43.40916443 C-32.81716437 46.45498101 -32.863869 49.50083649 -32.91015625 52.546875 C-32.94838541 54.62566653 -32.98743993 56.70444306 -33.02734375 58.78320312 C-33.12282121 63.85013698 -33.20704743 68.91714485 -33.28515625 73.984375 C-36.91515625 73.984375 -40.54515625 73.984375 -44.28515625 73.984375 C-44.28515625 49.234375 -44.28515625 24.484375 -44.28515625 -1.015625 C-40.65515625 -1.015625 -37.02515625 -1.015625 -33.28515625 -1.015625 C-32.95515625 2.284375 -32.62515625 5.584375 -32.28515625 8.984375 C-31.29515625 7.911875 -30.30515625 6.839375 -29.28515625 5.734375 C-20.99316008 -2.44153322 -10.97304485 -4.75723008 0 0 Z " fill="#040404" transform="translate(959.28515625,768.015625)"/>
<path d="M0 0 C10.91454726 -0.3601644 21.12419907 1.80556302 29.47265625 9.16015625 C34.04129548 14.08947753 38.47265625 20.2265689 38.47265625 27.16015625 C36.53628585 27.66451319 34.59851479 28.16349499 32.66015625 28.66015625 C31.04173828 29.0778125 31.04173828 29.0778125 29.390625 29.50390625 C26.47265625 30.16015625 26.47265625 30.16015625 23.47265625 30.16015625 C23.22515625 28.96390625 22.97765625 27.76765625 22.72265625 26.53515625 C21.31377929 20.99748707 19.04281713 17.3704886 14.47265625 13.84765625 C7.98057167 10.19585867 0.02469471 9.9676312 -7.13671875 11.84375 C-12.33053633 13.94393463 -15.68605397 16.30246728 -18.52734375 21.16015625 C-19.4580716 25.78886529 -18.96966346 29.18336689 -17.02734375 33.47265625 C-11.32433329 39.60339249 -3.85092595 40.94511907 4.09765625 42.47265625 C16.08635028 45.01074465 27.23765427 48.22904554 35.23828125 58.16796875 C39.65543014 65.29691157 39.11837408 73.07672562 38.47265625 81.16015625 C37.60832063 84.55208955 36.36865137 87.23112725 34.47265625 90.16015625 C33.48265625 91.73796875 33.48265625 91.73796875 32.47265625 93.34765625 C26.25138547 100.28602055 16.5464203 102.84594345 7.625 103.3984375 C-5.12308647 103.73308042 -16.86952682 102.28635023 -26.52734375 93.16015625 C-27.06875 92.6703125 -27.61015625 92.18046875 -28.16796875 91.67578125 C-33.44632499 86.29079155 -37.52734375 77.73354137 -37.52734375 70.16015625 C-35.96617556 69.82064006 -34.40333037 69.48883081 -32.83984375 69.16015625 C-31.96972656 68.97453125 -31.09960938 68.78890625 -30.203125 68.59765625 C-27.59021411 68.17043578 -25.16921337 68.08399424 -22.52734375 68.16015625 C-22.36878906 68.94519531 -22.21023438 69.73023438 -22.046875 70.5390625 C-20.44874063 77.73508192 -18.95054985 83.91978504 -12.7890625 88.43359375 C-5.23899591 92.9927346 3.31357943 93.24471097 11.890625 91.734375 C17.17439212 90.06850645 20.46246562 86.74314544 23.47265625 82.16015625 C25.37719249 76.44654752 25.3110531 70.42382774 23.22265625 64.78515625 C16.34936548 58.22428778 6.82941225 56.68638872 -2.15234375 54.66015625 C-13.55036555 52.07101551 -22.73711672 49.3454968 -29.52734375 39.16015625 C-32.87972508 32.55664 -32.59685287 23.77555466 -30.9453125 16.6484375 C-27.98042358 9.75743996 -21.24953205 5.05523609 -14.46484375 2.28515625 C-9.69507872 0.75470015 -4.96474621 0.31461297 0 0 Z " fill="#040404" transform="translate(1101.52734375,740.83984375)"/>
<path d="M0 0 C1.98615712 -0.01712412 3.97202492 -0.06100974 5.95776367 -0.10522461 C12.22678084 -0.14661477 17.6321135 -0.08876429 23.30078125 2.74755859 C27.83970098 7.36218765 28.16491054 12.85630391 28.16247559 18.98669434 C28.14712769 19.92251343 28.13177979 20.85833252 28.1159668 21.82250977 C28.11294556 22.70007935 28.10992432 23.57764893 28.10681152 24.48181152 C28.09122036 27.73221751 28.04933698 30.98245468 28.01049805 34.23266602 C27.94862305 41.51329102 27.88674805 48.79391602 27.82299805 56.29516602 C10.99299805 56.29516602 -5.83700195 56.29516602 -23.17700195 56.29516602 C-23.23887695 48.99391602 -23.30075195 41.69266602 -23.36450195 34.17016602 C-23.39181396 31.87547363 -23.41912598 29.58078125 -23.44726562 27.21655273 C-23.45603223 25.38599167 -23.46367575 23.55542474 -23.4699707 21.72485352 C-23.4853186 20.78391846 -23.5006665 19.8429834 -23.51647949 18.87353516 C-23.51858234 13.57857166 -23.17625271 9.85953481 -20.17700195 5.29516602 C-13.92789651 -0.48525652 -8.1491114 0.04885678 0 0 Z " fill="#020202" transform="translate(352.177001953125,819.704833984375)"/>
<path d="M0 0 C3.96 0 7.92 0 12 0 C12.33 12.87 12.66 25.74 13 39 C15.475 36.525 15.475 36.525 18 34 C24.91304572 28.20007181 31.08301725 27.29462674 40 28 C46.89713332 29.24057348 52.62628277 32.4743187 57 38 C61.38341741 45.27283459 61.53373958 52.02666063 61.390625 60.34765625 C61.38496521 61.60009628 61.37930542 62.85253632 61.37347412 64.14292908 C61.35498158 67.44265041 61.31916413 70.7415626 61.2746582 74.04101562 C61.23344329 77.41982212 61.21540771 80.79874796 61.1953125 84.17773438 C61.15137078 90.78550866 61.08240632 97.392598 61 104 C57.37 104 53.74 104 50 104 C49.9906543 102.47713379 49.98130859 100.95426758 49.97167969 99.38525391 C49.93161538 93.70071855 49.8658103 88.01671504 49.79248047 82.33251953 C49.7643661 79.87881333 49.74310447 77.42501816 49.72900391 74.97119141 C49.70744278 71.43085496 49.66072262 67.89157749 49.609375 64.3515625 C49.60814636 63.26573883 49.60691772 62.17991516 49.60565186 61.06118774 C49.47357344 54.09293812 48.4415261 48.14738653 45 42 C40.62105959 38.27790065 35.44700589 38.49749488 29.91015625 38.6484375 C24.56429427 39.29424633 21.51394128 41.44400479 17.75 45.3125 C13.08538374 52.47601782 12.53912491 58.20624771 12.48828125 66.62109375 C12.47033005 67.72099136 12.45237885 68.82088898 12.43388367 69.95411682 C12.37993511 73.44853952 12.34593379 76.94282681 12.3125 80.4375 C12.27931337 82.8144719 12.24482248 85.19142597 12.20898438 87.56835938 C12.12421714 93.37880833 12.05733178 99.18921819 12 105 C8.04 105 4.08 105 0 105 C0 70.35 0 35.7 0 0 Z " fill="#060606" transform="translate(703,738)"/>
<path d="M0 0 C6.98847105 4.30059757 11.16332445 10.10915882 13.25 18 C13.66526539 21.1178776 13.72791127 24.1699672 13.6875 27.3125 C13.67920166 28.14555664 13.67090332 28.97861328 13.66235352 29.83691406 C13.39906781 39.47260874 11.27077631 46.83294428 4.2265625 53.66015625 C-2.02668025 57.89901448 -9.49504884 57.84256768 -16.75 57 C-22.5018135 55.0245369 -25.72463547 51.29843541 -28.7421875 46.16015625 C-33.2283114 36.5445496 -33.62949426 23.80345858 -30.8046875 13.578125 C-27.77842143 7.29719543 -23.51498725 2.05594491 -16.8359375 -0.49609375 C-11.1470467 -1.87037636 -5.60934581 -1.49582555 0 0 Z " fill="#FCFCFC" transform="translate(1198.75,777)"/>
<path d="M0 0 C6.06469988 3.66324154 9.83339268 9.02222581 11.80102539 15.81787109 C14.06937555 26.31927148 13.82883165 39.4027757 8.1484375 48.63671875 C4.12002519 53.62626678 0.5050249 56.5093442 -5.95703125 57.42578125 C-12.9829895 57.64357789 -18.88572685 57.33164644 -24.34375 52.5625 C-31.61975537 44.92629635 -33.30480853 36.43868009 -33.13452148 26.22924805 C-32.7683524 17.06278139 -30.95373448 10.59129823 -24.74609375 3.66015625 C-17.81113668 -2.17059406 -8.43840931 -3.1824858 0 0 Z " fill="#FCFCFC" transform="translate(616.734375,777.03125)"/>
<path d="M0 0 C5.05166326 3.96916399 8.27742096 8.84389787 10 15 C11.45810852 27.27666195 10.85351984 38.30131336 4.1875 48.875 C-0.90162701 53.81872338 -4.45687111 55.25960237 -11.5 55.4375 C-18.99035523 55.15468338 -23.37173066 53.94521875 -28.75 48.5 C-36.14585155 39.30920021 -35.97503659 27.24616061 -35 16 C-33.40674916 9.18126575 -29.15376688 3.64293096 -24 -1 C-16.75212657 -4.95338551 -6.98379328 -4.0506001 0 0 Z " fill="#FDFDFD" transform="translate(1479,779)"/>
<path d="M0 0 C4.64035224 4.77293374 7.1875 8.49332983 7.1875 15.25 C3.2275 15.91 -0.7325 16.57 -4.8125 17.25 C-8.8125 9.5 -8.8125 9.5 -8.8125 7.25 C-15.5948363 4.66526818 -24.04972391 3.46290525 -31.01953125 6.078125 C-33.22993242 7.51945715 -34.62936975 8.88373949 -35.8125 11.25 C-35.97963497 13.32776501 -35.97963497 13.32776501 -35.8125 15.625 C-35.791875 16.39585937 -35.77125 17.16671875 -35.75 17.9609375 C-34.53147496 20.93616948 -32.72204439 21.96105148 -29.91650391 23.40136719 C-26.21802428 24.89311878 -22.41603456 25.51770851 -18.5 26.1875 C-7.7813139 28.25634324 0.77613767 30.85770905 7.1875 40.25 C9.51935414 44.91370828 8.87600519 51.6406969 7.57421875 56.57421875 C4.60519802 63.23162647 -0.84644513 68.13993247 -7.5234375 70.921875 C-11.93503306 72.47689075 -16.03830255 72.75026641 -20.6875 72.6875 C-21.47616455 72.67992676 -22.2648291 72.67235352 -23.07739258 72.66455078 C-31.73503183 72.42037238 -38.84883525 70.0729449 -45.2734375 64.08984375 C-49.40252997 59.15379666 -52.19469127 53.74725162 -51.8125 47.25 C-49.95625 46.755 -49.95625 46.755 -48.0625 46.25 C-47.36640625 46.064375 -46.6703125 45.87875 -45.953125 45.6875 C-43.8125 45.25 -43.8125 45.25 -39.8125 45.25 C-39.66554688 45.91386719 -39.51859375 46.57773437 -39.3671875 47.26171875 C-37.76142362 53.58326048 -36.28500266 56.64047697 -30.8125 60.25 C-27.90249203 61.70500399 -25.3035667 61.45897384 -22.0625 61.5 C-20.85078125 61.52578125 -19.6390625 61.5515625 -18.390625 61.578125 C-13.05387028 61.08872828 -9.8862861 59.52158881 -6.4375 55.4375 C-4.32081605 51.28554301 -4.16703749 48.50911879 -5.4375 44.0625 C-9.85395594 38.24080808 -19.23384107 37.64647493 -25.9375 36.23242188 C-33.14723634 34.6273725 -40.48018768 32.72746065 -45.25 26.6875 C-45.72308594 26.10871094 -46.19617187 25.52992188 -46.68359375 24.93359375 C-49.65547897 20.50147427 -49.2291859 15.36241542 -48.8125 10.25 C-46.78677706 3.79300812 -41.62810293 -0.59137205 -35.8515625 -3.859375 C-24.07915302 -8.64050682 -10.49025803 -6.52727166 0 0 Z " fill="#070707" transform="translate(1644.8125,771.75)"/>
<path d="M0 0 C0.64324219 0.43570313 1.28648437 0.87140625 1.94921875 1.3203125 C6.39085729 4.7283622 9.1783898 8.69357028 11 14 C11 14.99 11 15.98 11 17 C2.57142857 19.28571429 2.57142857 19.28571429 -2 19 C-2.37125 17.7625 -2.7425 16.525 -3.125 15.25 C-4.26833732 12.33216178 -5.13379168 10.85536034 -7.3125 8.5 C-13.96238549 5.79496184 -21.71618362 5.63554389 -28.375 8.40234375 C-31.08930466 9.73566678 -31.08930466 9.73566678 -32 12 C-32.31128861 14.07220839 -32.31128861 14.07220839 -32.375 16.375 C-32.42398438 17.14585937 -32.47296875 17.91671875 -32.5234375 18.7109375 C-32.15514115 21.17664313 -32.15514115 21.17664313 -30.07421875 23.13671875 C-26.00596933 25.6024811 -22.05397331 26.44570477 -17.4375 27.4375 C4.58208229 32.59288631 4.58208229 32.59288631 10 41 C12.46220827 45.92441655 11.55089152 52.63289844 11 58 C8.57849816 64.81466131 3.65460778 68.39157244 -2.4375 71.90625 C-10.88164179 75.51045686 -22.86664251 75.54692737 -31.4375 72.4375 C-39.5362127 68.57648581 -44.33892206 63.37100163 -48.1875 55.33203125 C-49 53 -49 53 -49 49 C-45.04 48.34 -41.08 47.68 -37 47 C-36.1646875 49.59875 -36.1646875 49.59875 -35.3125 52.25 C-33.65737394 56.80013453 -32.39268609 59.58402265 -28 62 C-22.01236601 63.96426907 -13.77110427 64.30434251 -7.8203125 62.24609375 C-4.90820937 60.39886415 -2.91883398 58.30780234 -2 55 C-1.29502227 49.08668343 -1.29502227 49.08668343 -4.1875 44.125 C-8.4422384 40.91030877 -12.26719056 39.85901881 -17.52026367 39.06347656 C-26.85997723 37.62986124 -36.75513639 35.29253225 -43.25 27.875 C-46.45817079 22.48814606 -45.73249696 15.81743608 -44.59375 9.8828125 C-42.37800957 3.32305465 -36.27529261 0.2410687 -30.5625 -2.875 C-21.19256229 -5.97972142 -8.27444154 -5.60920037 0 0 Z " fill="#070707" transform="translate(547,770)"/>
<path d="M0 0 C6.98752648 4.08466244 10.39804656 9.75767634 12.85624695 17.28421021 C14.07917414 22.44335186 13.86357785 27.63582845 13.79296875 32.91015625 C13.78872391 34.11820419 13.78447906 35.32625214 13.78010559 36.57090759 C13.76341094 40.40167212 13.72577474 44.23189642 13.6875 48.0625 C13.67244131 50.67121632 13.65875498 53.27994095 13.64648438 55.88867188 C13.61353742 62.25932042 13.56181807 68.62956884 13.5 75 C9.54 75 5.58 75 1.5 75 C1.49589111 73.34548828 1.49178223 71.69097656 1.48754883 69.98632812 C1.46572306 63.82846223 1.41139561 57.67123215 1.34741211 51.51367188 C1.32150732 48.85195435 1.30984454 46.19126032 1.30444336 43.52929688 C1.29513238 39.69603832 1.2540892 35.86420862 1.20703125 32.03125 C1.2109639 30.84760864 1.21489655 29.66396729 1.21894836 28.44445801 C1.09894144 21.59855648 0.47406866 16.06834876 -4.5 11 C-9.30045274 8.16201529 -14.06629894 8.52146383 -19.5 9 C-25.63129082 10.70872039 -29.13685952 13.74927667 -32.5 19 C-35.32942373 25.83824615 -35.96151555 32.49238575 -36.01171875 39.8203125 C-36.02966995 40.80498505 -36.04762115 41.78965759 -36.06611633 42.8041687 C-36.11976346 45.91107049 -36.15396757 49.01782277 -36.1875 52.125 C-36.22071339 54.24741644 -36.25520669 56.36981326 -36.29101562 58.4921875 C-36.37546323 63.6613496 -36.44249018 68.83047088 -36.5 74 C-40.13 74 -43.76 74 -47.5 74 C-47.5 49.25 -47.5 24.5 -47.5 -1 C-43.87 -1 -40.24 -1 -36.5 -1 C-36.17 2.63 -35.84 6.26 -35.5 10 C-34.71625 8.948125 -33.9325 7.89625 -33.125 6.8125 C-24.69579389 -2.83208001 -11.71838053 -5.18856005 0 0 Z " fill="#060606" transform="translate(1565.5,768)"/>
<path d="M0 0 C3.96 0 7.92 0 12 0 C12 25.08 12 50.16 12 76 C8.37 76 4.74 76 1 76 C0.67 72.37 0.34 68.74 0 65 C-1.051875 66.36125 -1.051875 66.36125 -2.125 67.75 C-7.27531997 73.88408895 -13.20183798 76.53446035 -21.01953125 77.29296875 C-28.62726945 77.62065945 -33.95665167 76.7637295 -40 72 C-45.66014188 66.71720092 -48.47559095 59.60738012 -49.34899902 51.93374634 C-49.45883359 48.65283733 -49.45088813 45.39543172 -49.390625 42.11328125 C-49.38496521 40.93025925 -49.37930542 39.74723724 -49.37347412 38.52836609 C-49.35127408 34.78931372 -49.30110688 31.05125752 -49.25 27.3125 C-49.22991392 24.76108165 -49.21166687 22.20964812 -49.1953125 19.65820312 C-49.15146274 13.43842449 -49.08254831 7.21938051 -49 1 C-45.37 1 -41.74 1 -38 1 C-37.9906543 2.48733643 -37.98130859 3.97467285 -37.97167969 5.50708008 C-37.93157085 11.06678351 -37.86575415 16.6259457 -37.79248047 22.18530273 C-37.76439164 24.58366909 -37.74311749 26.98212593 -37.72900391 29.38061523 C-37.7074069 32.84405445 -37.66066949 36.30641935 -37.609375 39.76953125 C-37.60814636 40.82831985 -37.60691772 41.88710846 -37.60565186 42.97798157 C-37.46985886 50.00381276 -36.63893852 56.84612212 -33 63 C-27.55040235 66.93628153 -22.50986767 66.7355305 -16 66 C-10.17200841 64.48090055 -7.0619063 61.47366223 -4.0078125 56.390625 C-1.05718565 49.39146362 -0.67563275 42.64873614 -0.5859375 35.15625 C-0.56657135 34.14655151 -0.5472052 33.13685303 -0.5272522 32.09655762 C-0.46786773 28.89778879 -0.42123643 25.69898316 -0.375 22.5 C-0.33678233 20.32029752 -0.29772844 18.14060954 -0.2578125 15.9609375 C-0.16220026 10.64074384 -0.07801848 5.32047957 0 0 Z " fill="#050505" transform="translate(1324,767)"/>
<path d="M0 0 C7.03054405 5.75760432 13.29054642 12.26432051 19.60791016 18.77929688 C21.04692169 20.26073042 22.49530208 21.73246614 23.9453125 23.203125 C24.79625488 24.07614258 25.64719727 24.94916016 26.52392578 25.84863281 C28.78767484 28.08617119 28.78767484 28.08617119 31.2875061 28.78948975 C34.83421122 30.37228516 37.19457464 32.79086698 39.87597656 35.51953125 C40.72322296 36.36371109 40.72322296 36.36371109 41.58758545 37.22494507 C43.44593433 39.08029457 45.29333932 40.94614033 47.140625 42.8125 C48.4308737 44.10580731 49.72171486 45.39852381 51.01312256 46.69067383 C53.71419469 49.39634341 56.41028712 52.1068433 59.10253906 54.82128906 C62.55819688 58.30528531 66.02252553 61.7804934 69.49014664 65.25257874 C72.15342745 67.92000983 74.81386483 70.59026053 77.47325897 73.26156616 C78.75027389 74.54428746 80.0277644 75.82653546 81.30573273 77.10830688 C83.08699889 78.89642556 84.86483117 80.68788417 86.64160156 82.48046875 C87.1724939 83.01247894 87.70338623 83.54448914 88.25036621 84.09262085 C92.85452041 88.75130021 92.85452041 88.75130021 93.328125 92.81640625 C92.90950833 96.87798463 91.6496107 98.12674833 88.75 100.9375 C87.96109375 101.73027344 87.1721875 102.52304687 86.359375 103.33984375 C84 105 84 105 82.01461792 104.84713745 C79.38731348 103.74236817 78.812327 102.56509875 77.40673828 100.10595703 C73.93185746 94.60208343 69.61660906 90.2703011 64.96886826 85.74337387 C63.45604298 84.26947296 61.95334947 82.78584829 60.45266724 81.29959106 C57.26855058 78.14943595 54.07270672 75.01135117 50.875 71.875 C47.15782201 68.22897352 43.44580944 64.57797618 39.74625015 60.91406631 C38.27449273 59.46156995 36.79392231 58.01850037 35.31271362 56.57565308 C29.64969099 50.97489553 25.07167056 46.40205054 23.14501953 38.48803711 C21.631225 33.87661228 19.13169107 31.49546516 15.6796875 28.19140625 C14.75169846 27.27402931 14.75169846 27.27402931 13.80496216 26.33811951 C11.83979713 24.40078726 9.85792261 22.48163595 7.875 20.5625 C6.5340114 19.24660838 5.19415462 17.9295623 3.85546875 16.61132812 C0.58326119 13.39404245 -2.70404037 10.19294108 -6 7 C-4.02 4.69 -2.04 2.38 0 0 Z " fill="#010101" transform="translate(1640,656)"/>
<path d="M0 0 C12.54 0 25.08 0 38 0 C38 2.97 38 5.94 38 9 C33.71 9 29.42 9 25 9 C25 35.73 25 62.46 25 90 C29.29 90 33.58 90 38 90 C38 92.97 38 95.94 38 99 C25.46 99 12.92 99 0 99 C0 96.03 0 93.06 0 90 C4.29 90 8.58 90 13 90 C13 63.27 13 36.54 13 9 C8.71 9 4.42 9 0 9 C0 6.03 0 3.06 0 0 Z " fill="#000000" transform="translate(452,743)"/>
<path d="M0 0 C-0.75 1.9375 -0.75 1.9375 -2 4 C-5.39048915 5.28415755 -8.61118406 4.97059282 -12.1875 4.8125 C-19.75729636 4.76146767 -24.93408647 6.29907617 -30.625 11.3125 C-32.53312488 15.04201682 -32.12254162 17.0009455 -31 21 C-29.69418644 23.0180755 -28.36363208 25.02053408 -27 27 C-27 31 -27 31 -29 33.25 C-29.66 33.8275 -30.32 34.405 -31 35 C-33.55076153 33.82272545 -35.59705716 32.55869688 -37.875 30.875 C-41.48475851 28.7091449 -42.88897511 28.07711686 -47 29 C-49.81922071 30.98769298 -52.04970392 33.14956727 -54 36 C-54 36.99 -54 37.98 -54 39 C-54 43.26501052 -56.00919937 44.72944469 -58.8828125 47.6796875 C-61.81404623 49.50765245 -63.60095651 49.47812632 -67 49 C-69.484375 47.390625 -69.484375 47.390625 -71.75 45.25 C-72.50796875 44.55390625 -73.2659375 43.8578125 -74.046875 43.140625 C-76.55036881 40.39679578 -78 38.38168331 -78 34.625 C-76.5351934 30.77988268 -74.40555603 28.31267573 -71 26 C-68.6729261 25.27055946 -66.46753601 24.83258238 -64.05078125 24.51953125 C-61.50506274 23.87461589 -60.58667835 23.07598335 -59 21 C-58.29022684 19.03493105 -58.29022684 19.03493105 -57.8125 16.875 C-55.05567665 8.13558576 -48.26428227 2.45065486 -40.4296875 -1.84765625 C-28.2698935 -7.61476112 -11.94082527 -5.97041263 0 0 Z " fill="#050505" transform="translate(1665,626)"/>
<path d="M0 0 C0 5.94 0 11.88 0 18 C4.95 18 9.9 18 15 18 C15 20.97 15 23.94 15 27 C10.05 27 5.1 27 0 27 C0.33 45.15 0.66 63.3 1 82 C7.93 82.495 7.93 82.495 15 83 C15 85.97 15 88.94 15 92 C11.79024078 92.1354964 8.58624371 92.23434038 5.375 92.3125 C4.47136719 92.35439453 3.56773438 92.39628906 2.63671875 92.43945312 C-1.85913464 92.52149425 -5.00442325 92.52013202 -8.5859375 89.60546875 C-11.97831077 85.94412091 -12.12409431 84.33157093 -12.11352539 79.44873047 C-12.11344986 78.28767792 -12.11337433 77.12662537 -12.11329651 75.9303894 C-12.10813522 74.67203278 -12.10297394 73.41367615 -12.09765625 72.1171875 C-12.0962413 70.83264679 -12.09482635 69.54810608 -12.09336853 68.22463989 C-12.08954911 64.80843158 -12.07972373 61.39226574 -12.06866455 57.97607422 C-12.05843807 54.49056574 -12.05386826 51.0050504 -12.04882812 47.51953125 C-12.03810095 40.67966829 -12.02050879 33.83984055 -12 27 C-15.96 27 -19.92 27 -24 27 C-24 23.7 -24 20.4 -24 17 C-20.04 17 -16.08 17 -12 17 C-12 12.05 -12 7.1 -12 2 C-6 0 -6 0 0 0 Z " fill="#070707" transform="translate(1374,750)"/>
<path d="M0 0 C0 5.94 0 11.88 0 18 C4.95 18 9.9 18 15 18 C15 20.97 15 23.94 15 27 C10.05 27 5.1 27 0 27 C0.33 45.48 0.66 63.96 1 83 C5.62 83 10.24 83 15 83 C15 85.97 15 88.94 15 92 C11.76993266 92.1081697 8.54350246 92.18739234 5.3125 92.25 C4.40048828 92.28351563 3.48847656 92.31703125 2.54882812 92.3515625 C-1.81769795 92.41507561 -4.28725121 92.43722486 -8.08203125 90.109375 C-11.13687617 86.74966776 -11.1230162 84.81761617 -11.11352539 80.35693359 C-11.11344986 79.17586029 -11.11337433 77.99478699 -11.11329651 76.77792358 C-11.10813522 75.49769318 -11.10297394 74.21746277 -11.09765625 72.8984375 C-11.0962413 71.59170074 -11.09482635 70.28496399 -11.09336853 68.93862915 C-11.08954894 65.46323742 -11.07972342 61.98788743 -11.06866455 58.51251221 C-11.05843843 54.96668055 -11.05386833 51.42084215 -11.04882812 47.875 C-11.03810066 40.91664778 -11.02050836 33.95833019 -11 27 C-14.96 27 -18.92 27 -23 27 C-23 24.03 -23 21.06 -23 18 C-19.04 18 -15.08 18 -11 18 C-11 12.72 -11 7.44 -11 2 C-4 0 -4 0 0 0 Z " fill="#000000" transform="translate(673,750)"/>
<path d="M0 0 C0.125 7.625 0.125 7.625 -1 11 C-1.71285156 10.96519531 -2.42570313 10.93039062 -3.16015625 10.89453125 C-10.89968911 10.67578268 -15.7202381 11.16747836 -21.75 16.375 C-26.5396094 21.96287763 -28.06781165 26.59401746 -28.20532227 33.88208008 C-28.22526749 34.82267776 -28.24521271 35.76327545 -28.26576233 36.7323761 C-28.29083107 38.2357679 -28.29083107 38.2357679 -28.31640625 39.76953125 C-28.33718735 40.80567062 -28.35796844 41.84181 -28.37937927 42.90934753 C-28.4446213 46.21033265 -28.50364179 49.51139549 -28.5625 52.8125 C-28.60570932 55.05404441 -28.64932438 57.29558103 -28.69335938 59.53710938 C-28.80027671 65.02466048 -28.90161538 70.51228955 -29 76 C-32.96 76 -36.92 76 -41 76 C-41 51.25 -41 26.5 -41 1 C-37.37 1 -33.74 1 -30 1 C-29.67 4.3 -29.34 7.6 -29 11 C-28.21625 9.948125 -27.4325 8.89625 -26.625 7.8125 C-20.42516168 0.66889238 -9.24862878 -4.62431439 0 0 Z " fill="#060606" transform="translate(904,767)"/>
<path d="M0 0 C3.63 0 7.26 0 11 0 C11.01030746 1.1503624 11.02061493 2.30072479 11.03123474 3.48594666 C11.12879084 14.30205659 11.23150756 25.1181067 11.33933926 35.93411922 C11.39461529 41.49536549 11.44804263 47.05661696 11.49731445 52.61791992 C11.54488915 57.9801209 11.59722918 63.34225573 11.65294075 68.70437813 C11.67339565 70.75498378 11.69210342 72.80560759 11.70907402 74.85624504 C11.73304888 77.7179512 11.7631125 80.57953107 11.79467773 83.44116211 C11.8004332 84.29783478 11.80618866 85.15450745 11.81211853 86.03713989 C11.49489928 89.82674975 11.49489928 89.82674975 13 93 C15.98889359 93.45765667 18.98969648 93.70320951 22 94 C22 96.97 22 99.94 22 103 C19.43635517 103.10845031 16.87733721 103.18749744 14.3125 103.25 C13.59126953 103.28351563 12.87003906 103.31703125 12.12695312 103.3515625 C8.22045657 103.42291404 6.43065666 103.27534719 3.04296875 101.109375 C-0.83659608 97.10370577 -0.13466813 93.16028963 -0.11352539 87.86865234 C-0.11367142 86.92226395 -0.11381744 85.97587555 -0.1139679 85.00080872 C-0.11326942 81.86249525 -0.10548002 78.72424063 -0.09765625 75.5859375 C-0.09579184 73.41403231 -0.09436805 71.24212671 -0.09336853 69.07022095 C-0.08954516 63.34585413 -0.07971639 57.62151258 -0.06866455 51.89715576 C-0.05844657 46.05904482 -0.05387008 40.2209298 -0.04882812 34.3828125 C-0.03809398 22.92186389 -0.0210197 11.46093404 0 0 Z " fill="#000000" transform="translate(1241,739)"/>
<path d="M0 0 C3.63 0 7.26 0 11 0 C11 24.42 11 48.84 11 74 C7.37 74 3.74 74 0 74 C0 49.58 0 25.16 0 0 Z " fill="#000000" transform="translate(1404,768)"/>
<path d="M0 0 C5.65159817 4.13531573 8.95204082 9.07964787 10.5625 15.875 C10.5625 17.525 10.5625 19.175 10.5625 20.875 C-2.6375 20.875 -15.8375 20.875 -29.4375 20.875 C-28.41190192 11.64461726 -27.38881934 7.54408225 -20.8125 1.4375 C-14.82232811 -2.50340256 -6.63622873 -2.17185667 0 0 Z " fill="#FCFCFC" transform="translate(822.4375,777.125)"/>
<path d="M0 0 C2.97717008 1.98478006 4.62826444 3.36831119 5.44140625 6.9375 C5.65084713 10.50475112 5.14497413 12.70374852 3.5625 15.9375 C-0.08692575 18.87484268 -3.369859 19.38790843 -8 19 C-11 17.625 -11 17.625 -13 15 C-13.96331225 11.93906109 -14.30781064 9.19781051 -14 6 C-10.51643027 0.23409149 -6.60080761 -1.08541005 0 0 Z " fill="#050505" transform="translate(1414,736)"/>
</svg>
