<?xml version="1.0" standalone="no"?>
<!DOCTYPE svg PUBLIC "-//W3C//DTD SVG 20010904//EN"
 "http://www.w3.org/TR/2001/REC-SVG-20010904/DTD/svg10.dtd">
<svg version="1.0" xmlns="http://www.w3.org/2000/svg"
 width="2000.000000pt" height="1500.000000pt" viewBox="0 0 2000.000000 1500.000000"
 preserveAspectRatio="xMidYMid meet">

<g transform="translate(0.000000,1500.000000) scale(0.100000,-0.100000)"
fill="#000000" stroke="none">
<path d="M16310 8776 c-70 -20 -109 -44 -165 -100 -38 -38 -54 -63 -64 -99
-15 -63 -54 -100 -98 -95 -28 3 -39 -3 -74 -38 -36 -36 -41 -46 -35 -71 9 -33
92 -117 126 -126 33 -9 112 69 103 102 -4 17 4 33 38 67 54 55 81 57 145 8
l47 -36 30 31 31 30 -22 23 c-30 33 -54 95 -46 121 20 67 115 111 228 106 60
-4 96 8 96 31 0 5 -28 18 -62 30 -78 27 -214 35 -278 16z"/>
<path d="M16372 8407 l-32 -33 150 -149 c107 -107 150 -156 150 -173 0 -47 38
-93 286 -343 140 -140 254 -260 254 -266 0 -6 10 -23 21 -37 l22 -28 53 53
c88 87 101 66 -248 416 -167 167 -309 303 -318 303 -8 0 -80 65 -160 145
l-146 145 -32 -33z"/>
<path d="M3445 8069 c-16 -6 -187 -117 -380 -247 -343 -233 -350 -238 -378
-292 -25 -50 -28 -64 -25 -142 l3 -86 379 268 c209 148 387 272 395 275 35 14
141 17 188 6 38 -9 137 -72 429 -270 l379 -259 3 52 c5 78 -6 130 -38 178 -24
35 -94 87 -385 283 l-355 239 -93 3 c-50 1 -105 -3 -122 -8z"/>
<path d="M3468 7716 c-26 -7 -69 -28 -96 -47 -26 -19 -197 -140 -380 -269
l-332 -235 0 -385 c0 -380 0 -386 23 -430 13 -26 40 -57 65 -75 l44 -30 199
-3 199 -3 0 263 c0 234 2 268 19 303 45 99 110 119 375 113 163 -3 185 -6 223
-26 45 -24 74 -58 91 -111 8 -22 12 -122 12 -287 l0 -254 188 0 c178 0 191 1
233 23 24 13 58 43 74 66 l30 43 3 406 3 407 -133 90 c-73 50 -241 164 -373
254 -132 90 -254 170 -270 177 -49 20 -144 25 -197 10z"/>
<path d="M14029 7611 c-21 -22 -29 -39 -29 -66 0 -51 44 -95 95 -95 83 0 127
105 69 164 -38 38 -95 36 -135 -3z"/>
<path d="M7030 7095 l0 -515 59 0 60 0 3 248 c3 241 4 248 28 296 14 28 42 64
63 80 32 26 49 31 106 34 89 5 125 -13 154 -76 21 -44 22 -65 25 -314 l3 -268
55 0 54 0 0 275 c0 252 -2 279 -21 329 -39 106 -142 166 -264 153 -69 -7 -114
-29 -164 -80 l-41 -41 0 197 0 197 -60 0 -60 0 0 -515z"/>
<path d="M12410 7124 l0 -486 29 -29 c28 -27 34 -29 110 -29 l81 0 0 45 0 45
-45 0 c-34 0 -47 5 -55 19 -6 13 -10 179 -10 470 l0 451 -55 0 -55 0 0 -486z"/>
<path d="M10925 7577 c-105 -27 -182 -84 -211 -153 -16 -38 -19 -160 -4 -198
14 -37 79 -105 121 -127 21 -10 85 -30 141 -44 214 -52 260 -73 284 -130 47
-113 -18 -229 -142 -255 -159 -33 -285 38 -315 178 -7 31 -14 59 -15 61 -2 1
-35 -3 -74 -10 l-71 -12 6 -31 c20 -93 92 -196 169 -241 65 -38 167 -58 266
-52 207 12 320 115 320 291 0 83 -14 125 -56 175 -49 57 -113 87 -271 127 -74
19 -152 43 -174 54 -106 55 -103 185 5 246 80 45 216 38 278 -14 33 -28 67
-93 68 -129 0 -13 3 -23 8 -23 17 1 134 28 138 33 10 10 -38 116 -71 155 -21
24 -62 54 -99 72 -54 27 -77 32 -157 36 -58 2 -113 -1 -144 -9z"/>
<path d="M4520 7525 l0 -45 65 0 65 0 0 -405 0 -405 -65 0 -65 0 0 -45 0 -45
195 0 195 0 0 45 0 45 -70 0 -70 0 2 403 3 402 68 3 67 3 0 44 0 45 -195 0
-195 0 0 -45z"/>
<path d="M6653 7489 l-32 -9 -3 -78 -3 -77 -57 -3 -58 -3 0 -44 0 -44 58 -3
57 -3 5 -298 5 -299 28 -24 c26 -22 37 -24 128 -24 l99 0 0 45 0 45 -63 0
c-36 0 -68 5 -75 12 -9 9 -12 85 -12 280 l0 268 75 0 75 0 0 45 0 44 -72 3
-73 3 -3 88 c-3 97 -4 98 -79 76z"/>
<path d="M13685 7495 c-5 -2 -22 -6 -37 -9 -28 -6 -28 -7 -28 -86 l0 -80 -60
0 -60 0 0 -45 0 -45 60 0 59 0 3 -296 3 -296 33 -29 c31 -28 36 -29 132 -29
l100 0 0 45 0 45 -59 0 c-99 0 -91 -25 -91 286 l0 274 75 0 75 0 0 45 0 45
-75 0 -75 0 0 90 c0 87 -1 90 -22 89 -13 0 -27 -2 -33 -4z"/>
<path d="M5188 7327 c-68 -20 -124 -61 -149 -109 -28 -55 -24 -149 9 -195 31
-44 111 -80 226 -103 145 -29 186 -58 186 -130 0 -80 -67 -132 -170 -131 -101
0 -168 50 -185 138 -4 23 -11 33 -19 30 -8 -3 -35 -9 -60 -12 -46 -7 -47 -8
-40 -39 17 -80 76 -150 159 -188 42 -19 67 -23 151 -23 92 0 105 3 159 30 87
45 119 94 123 193 3 68 1 81 -20 112 -31 46 -105 86 -198 105 -178 38 -220 62
-220 126 0 54 8 67 51 89 26 14 58 20 102 20 81 0 125 -26 147 -88 16 -46 17
-47 90 -31 55 12 56 14 36 63 -21 50 -71 102 -124 126 -59 28 -185 36 -254 17z"/>
<path d="M5953 7322 c-142 -51 -224 -164 -239 -330 -16 -178 63 -334 205 -401
48 -22 69 -26 151 -26 84 0 102 3 151 28 69 33 132 99 167 175 25 52 27 68 27
182 0 114 -2 130 -27 182 -35 75 -98 142 -164 174 -73 36 -196 43 -271 16z
m235 -114 c29 -20 49 -46 73 -94 30 -61 33 -74 33 -164 0 -90 -3 -103 -33
-164 -47 -96 -87 -121 -197 -121 -76 0 -85 2 -121 30 -21 18 -51 57 -68 90
-28 55 -30 68 -30 165 0 88 4 113 23 156 44 97 105 136 208 132 57 -3 79 -8
112 -30z"/>
<path d="M8029 7325 c-102 -33 -184 -118 -217 -225 -10 -35 -16 -90 -16 -150
0 -114 19 -185 68 -254 67 -95 173 -142 301 -134 73 5 157 36 201 75 29 26 84
103 84 119 0 14 -95 48 -110 39 -5 -3 -10 -11 -10 -17 0 -22 -52 -79 -90 -98
-54 -27 -147 -27 -201 0 -62 32 -119 141 -119 225 0 13 42 15 276 15 l277 0
-6 78 c-10 148 -81 265 -189 312 -67 29 -183 36 -249 15z m178 -96 c15 -6 39
-20 52 -32 30 -28 71 -113 71 -149 l0 -28 -204 0 -204 0 9 43 c14 62 59 128
104 154 44 25 124 31 172 12z"/>
<path d="M8888 7325 c-54 -20 -88 -45 -119 -89 l-29 -39 0 61 0 62 -55 0 -55
0 0 -370 0 -370 60 0 60 0 0 223 c0 261 8 305 69 366 43 43 113 66 172 56 34
-6 39 -4 43 17 14 67 13 79 -5 88 -25 14 -97 11 -141 -5z"/>
<path d="M9406 7328 c-25 -7 -59 -30 -93 -62 l-53 -52 0 53 0 53 -55 0 -55 0
0 -370 0 -370 55 0 55 0 0 198 c0 217 9 292 41 358 32 67 78 97 155 102 59 4
65 2 93 -25 46 -46 51 -84 51 -370 l0 -263 60 0 60 0 0 228 c0 256 9 307 62
368 42 47 77 64 136 64 35 0 57 -6 77 -22 54 -43 59 -68 63 -365 l4 -273 55 0
54 0 -3 293 -3 292 -30 55 c-18 33 -47 66 -73 85 -40 27 -51 30 -120 30 -59 0
-86 -5 -117 -22 -40 -21 -94 -73 -112 -106 -8 -15 -14 -11 -41 32 -56 86 -153
118 -266 89z"/>
<path d="M11805 7331 c-176 -49 -274 -202 -263 -411 9 -154 75 -265 195 -325
53 -27 67 -30 158 -30 83 1 108 5 146 23 77 38 125 87 165 167 30 61 37 87 41
158 16 244 -120 415 -337 423 -41 2 -88 -1 -105 -5z m178 -104 c48 -21 104
-88 121 -148 9 -29 16 -87 16 -129 0 -100 -22 -171 -68 -222 -46 -51 -85 -68
-157 -68 -145 0 -225 103 -225 290 0 65 5 104 20 143 21 55 77 119 120 136 37
14 136 13 173 -2z"/>
<path d="M14563 7326 c-61 -20 -127 -61 -157 -97 -108 -128 -126 -334 -43
-492 36 -69 81 -111 157 -146 47 -22 69 -26 150 -26 84 0 102 3 152 28 71 35
140 109 170 185 19 48 22 76 22 172 0 96 -3 124 -22 172 -31 76 -96 147 -168
182 -70 34 -192 45 -261 22z m220 -116 c42 -29 83 -90 98 -145 6 -22 9 -85 7
-140 -3 -88 -7 -107 -33 -154 -40 -73 -89 -104 -170 -109 -84 -6 -126 10 -175
65 -49 57 -70 122 -70 223 0 97 20 165 64 216 51 60 87 75 172 72 56 -3 78 -8
107 -28z"/>
<path d="M15431 7323 c-25 -9 -66 -37 -93 -64 l-48 -48 0 54 0 55 -55 0 -55 0
0 -370 0 -370 54 0 54 0 4 238 3 237 30 60 c17 33 47 72 68 89 32 26 48 31
105 34 83 4 124 -18 152 -81 18 -38 20 -67 20 -309 l0 -268 60 0 60 0 0 263
c0 200 -3 275 -14 311 -36 117 -111 177 -230 182 -48 3 -85 -2 -115 -13z"/>
<path d="M16122 7323 c-189 -57 -219 -280 -49 -362 23 -11 86 -30 141 -41 126
-26 165 -44 183 -88 17 -40 10 -80 -19 -117 -30 -38 -73 -56 -137 -56 -99 -1
-161 40 -185 121 -7 22 -16 41 -22 41 -5 0 -31 -3 -58 -6 l-48 -7 6 -36 c14
-92 108 -181 214 -203 77 -16 187 -6 245 21 176 83 184 314 14 385 -21 8 -85
27 -143 41 -154 36 -184 56 -184 121 0 38 25 72 66 89 46 19 149 18 184 -2 29
-18 60 -62 60 -87 0 -25 17 -29 76 -17 56 12 56 12 50 43 -10 53 -59 109 -120
141 -71 37 -189 45 -274 19z"/>
<path d="M12750 7051 c0 -221 3 -278 16 -319 33 -102 109 -161 220 -170 98 -7
190 33 240 107 l24 36 0 -63 0 -62 55 0 55 0 0 370 0 370 -60 0 -60 0 0 -223
c0 -242 -7 -286 -54 -358 -35 -52 -90 -79 -161 -79 -76 0 -112 20 -138 78 -20
44 -22 67 -25 315 l-4 267 -54 0 -54 0 0 -269z"/>
<path d="M14040 6950 l0 -370 55 0 55 0 0 370 0 370 -55 0 -55 0 0 -370z"/>
<path d="M3381 6787 c-41 -14 -69 -50 -81 -103 -5 -21 -10 -130 -10 -241 l0
-203 255 0 255 0 0 226 c0 262 -5 284 -74 315 -34 15 -65 18 -176 18 -78 0
-149 -5 -169 -12z"/>
</g>
</svg>
